:FULLY-SPECIFIED
:FORCE-ALL-JOINTS-BE-3DOF
:DEGREES
612
root -4.43777 15.5938 -40.5205 -6.79142 -73.588 12.5433
lfemur -4.98978 12.2188 -13.7055
ltibia 43.911 0 0
lfoot -22.3783 28.9712 0.00349624
ltoes -23.2017 0 0
rfemur -45.2436 -29.147 14.9651
rtibia 75.1025 0 0
rfoot -12.4353 -12.3466 0.472247
rtoes -4.18623 0 0
lowerback 11.7883 4.58377 -6.2165
upperback -2.06747 5.09588 -0.842245
thorax -9.31748 2.74764 1.58324
lowerneck 1.67491 -10.9215 -11.9508
upperneck -1.22276 -14.8263 11.1222
head 1.0965 -7.44874 4.93312
lclavicle -3.54512e-14 2.72496e-15 -4.53223e-31
lhumerus -71.8971 -22.6812 104.725
lradius 102.504 0 0
lwrist 58.0461 0 0
lhand 7.08715 56.9873 0.0295296
lfingers 7.12502 0 0
lthumb 32.3529 84.0643 0.0127171
rclavicle -3.54512e-14 2.72496e-15 -4.53223e-31
rhumerus 23.0938 16.3708 -47.181
rradius 80.3467 0 0
rwrist -19.4394 0 0
rhand -22.2255 -35.2914 -0.0636403
rfingers 7.12502 0 0
rthumb 4.18915 -65.1647 -0.0535099
613
root -4.37684 15.6191 -40.4796 -5.94866 -74.0726 12.0219
lfemur -5.80606 12.481 -14.3815
ltibia 43.9742 0 0
lfoot -22.2982 29.1939 0.00300294
ltoes -23.4285 0 0
rfemur -44.2708 -29.9077 15.817
rtibia 76.0609 0 0
rfoot -13.1211 -14.054 0.401689
rtoes -3.93881 0 0
lowerback 11.4595 4.67269 -6.32759
upperback -2.24843 5.20708 -0.967112
thorax -9.33651 2.80853 1.49958
lowerneck 1.56454 -10.87 -11.9335
upperneck -1.07556 -14.7555 11.2439
head 1.15789 -7.41193 4.95692
lclavicle -4.17062e-14 2.5446e-15 -3.7442e-31
lhumerus -71.9598 -22.9829 104.836
lradius 102.447 0 0
lwrist 57.6019 0 0
lhand 7.22147 56.9553 0.0239531
lfingers 7.12502 0 0
lthumb 32.4817 84.016 0.0101438
rclavicle -4.17062e-14 2.5446e-15 -3.7442e-31
rhumerus 24.0262 16.5706 -47.1339
rradius 84.9133 0 0
rwrist -21.8825 0 0
rhand -22.9689 -35.2394 -0.0501821
rfingers 7.12502 0 0
rthumb 3.47161 -65.1367 -0.0418475
614
root -4.31591 15.6445 -40.4388 -4.99775 -74.5882 11.4215
lfemur -6.68439 12.7521 -15.1153
ltibia 44.0292 0 0
lfoot -22.2163 29.4359 0.0022859
ltoes -23.6644 0 0
rfemur -43.2384 -30.7335 16.7182
rtibia 77.0861 0 0
rfoot -13.8534 -15.8889 0.302916
rtoes -3.69014 0 0
lowerback 11.1047 4.76906 -6.44356
upperback -2.44362 5.32882 -1.10168
thorax -9.35694 2.87505 1.4068
lowerneck 1.45167 -10.815 -11.9135
upperneck -0.931171 -14.6796 11.374
head 1.21864 -7.37249 4.98291
lclavicle -4.83916e-14 2.36149e-15 -2.74254e-31
lhumerus -72.0272 -23.3141 104.961
lradius 102.385 0 0
lwrist 57.1079 0 0
lhand 7.38767 56.9267 0.0172146
lfingers 7.12502 0 0
lthumb 32.6412 83.9673 0.00715768
rclavicle -4.83916e-14 2.36149e-15 -2.74254e-31
rhumerus 25.0354 16.796 -47.0646
rradius 89.7905 0 0
rwrist -24.4905 0 0
rhand -23.752 -35.2007 -0.0349482
rfingers 7.12502 0 0
rthumb 2.71588 -65.1233 -0.0288693
615
root -4.25497 15.6698 -40.3979 -3.92159 -75.1352 10.7262
lfemur -7.62767 13.0305 -15.91
ltibia 44.0753 0 0
lfoot -22.1329 29.6978 0.00130082
ltoes -23.9097 0 0
rfemur -42.1454 -31.6286 17.6688
rtibia 78.1804 0 0
rfoot -14.6323 -17.8556 0.170873
rtoes -3.44068 0 0
lowerback 10.7228 4.87312 -6.56466
upperback -2.65366 5.46146 -1.24639
thorax -9.37886 2.94744 1.30449
lowerneck 1.33638 -10.7562 -11.8906
upperneck -0.790086 -14.5986 11.5129
head 1.27857 -7.33032 5.01118
lclavicle -5.55226e-14 2.17584e-15 -1.50294e-31
lhumerus -72.0998 -23.6757 105.101
lradius 102.318 0 0
lwrist 56.5616 0 0
lhand 7.58759 56.9018 0.00925279
lfingers 7.12502 0 0
lthumb 32.8329 83.9182 0.0037712
rclavicle -5.55226e-14 2.17584e-15 -1.50294e-31
rhumerus 26.125 17.0476 -46.9708
rradius 94.9888 0 0
rwrist -27.269 0 0
rhand -24.5756 -35.1764 -0.0181359
rfingers 7.12502 0 0
rthumb 1.92096 -65.1256 -0.0148189
616
root -4.19404 15.6951 -40.3571 357.301 -75.7136 369.916
lfemur -8.63886 13.314 -16.7685
ltibia 44.112 0 0
lfoot -22.0479 29.9806 0
ltoes -24.1644 0 0
rfemur -40.9905 -32.5974 18.6687
rtibia 79.3461 0 0
rfoot -15.4578 -19.9581 0
rtoes -3.19088 0 0
lowerback 10.3128 4.98507 -6.69108
upperback -2.87916 5.60538 -1.40172
thorax -9.40235 3.02593 1.1922
lowerneck 1.21875 -10.6936 -11.8647
upperneck -0.652777 -14.5121 11.6607
head 1.3375 -7.28534 5.04183
lclavicle -6.31141e-14 1.98785e-15 0
lhumerus -72.178 -24.0693 105.256
lradius 102.244 0 0
lwrist 55.9607 0 0
lhand 7.82303 56.8809 0
lfingers 7.12502 0 0
lthumb 33.0588 83.8687 0
rclavicle -6.31141e-14 1.98785e-15 0
rhumerus 27.2987 17.326 -46.8499
rradius 100.519 0 0
rwrist -30.2236 0 0
rhand -25.4408 -35.1675 0
rfingers 7.12502 0 0
rthumb 1.08587 -65.1445 0
617
root -4.25538 15.6883 -40.337 -2.02577 -76.0166 9.238
lfemur -9.44316 13.3308 -16.8892
ltibia 44.5173 0 0
lfoot -21.8649 29.6501 -0.0478004
ltoes -24.0873 0 0
rfemur -40.4482 -32.6045 18.8526
rtibia 79.1956 0 0
rfoot -15.679 -20.3551 -0.0151524
rtoes -3.30178 0 0
lowerback 10.324 4.96961 -6.57022
upperback -2.89596 5.60317 -1.35929
thorax -9.42114 3.01932 1.17084
lowerneck 1.1557 -10.5979 -11.7891
upperneck -0.582732 -14.3806 11.6121
head 1.35066 -7.2178 5.01977
lclavicle -6.35023e-14 1.51014e-15 2.61612e-31
lhumerus -71.1407 -24.3938 105.053
lradius 102.016 0 0
lwrist 55.277 0 0
lhand 7.72117 56.5052 0.028977
lfingers 7.12502 0 0
lthumb 32.9613 83.5099 0.026392
rclavicle -6.35023e-14 1.51014e-15 2.61612e-31
rhumerus 27.4344 17.4146 -47.0734
rradius 101.437 0 0
rwrist -30.815 0 0
rhand -25.1872 -34.8434 0.0967941
rfingers 7.12502 0 0
rthumb 1.32655 -64.7865 0.103966
